<svg width="500" height="269" viewBox="0 0 500 269" fill="none" xmlns="http://www.w3.org/2000/svg">
<path d="M247.24 113.645C166.017 113.645 118.415 172.102 92.3755 229.759L247.24 252.995L402.105 229.759C376.066 172.102 330.155 113.645 247.24 113.645Z" fill="#F8FF7B"/>
<path d="M239.449 228.642C231.298 220.525 155.224 215.113 90.0177 228.642C90.0177 228.642 76.4336 257.177 79.15 257.177C84.5844 257.177 231.298 254.471 236.732 254.471C242.166 254.471 242.166 268 247.599 268C253.033 268 253.033 254.471 258.467 254.471C263.901 254.471 410.616 257.177 416.049 257.177C418.766 257.177 405.181 228.642 405.181 228.642C339.975 215.113 263.901 220.525 255.75 228.642C250.316 234.054 248.958 239.466 247.599 243.524C246.241 239.466 244.883 234.054 239.449 228.642Z" fill="white" stroke="black" stroke-linecap="round"/>
<path d="M248.215 0L285.862 109.586C256.366 105.527 240.064 105.527 210.568 109.586L248.215 0Z" fill="#F8FF7B"/>
<path d="M248.215 0L285.862 109.586C256.366 105.527 240.064 105.527 210.568 109.586L248.215 0Z" fill="#F8FF7B"/>
<path d="M382.024 34.9815L359.609 148.632C336.102 130.429 321.985 122.312 294.403 111.139L382.024 34.9815Z" fill="#F8FF7B"/>
<path d="M382.024 34.9815L359.609 148.632C336.102 130.429 321.985 122.312 294.403 111.139L382.024 34.9815Z" fill="#F8FF7B"/>
<path d="M478.308 126.5L404.942 216.367C392.768 189.305 384.129 175.537 365.043 152.776L478.308 126.5Z" fill="#F8FF7B"/>
<path d="M478.308 126.5L404.942 216.367C392.768 189.305 384.129 175.537 365.043 152.776L478.308 126.5Z" fill="#F8FF7B"/>
<path d="M18.2076 123.794L91.5733 213.662C103.748 186.599 112.386 172.831 131.473 150.07L18.2076 123.794Z" fill="#F8FF7B"/>
<path d="M18.2076 123.794L91.5733 213.662C103.748 186.599 112.386 172.831 131.473 150.07L18.2076 123.794Z" fill="#F8FF7B"/>
<path d="M115.086 34.9815L137.5 148.632C161.007 130.429 175.125 122.312 202.707 111.139L115.086 34.9815Z" fill="#F8FF7B"/>
<path d="M115.086 34.9815L137.5 148.632C161.007 130.429 175.125 122.312 202.707 111.139L115.086 34.9815Z" fill="#F8FF7B"/>
</svg>
