<svg width="147" height="80" viewBox="0 0 147 80" fill="none" xmlns="http://www.w3.org/2000/svg">
<path d="M72.6886 33.4998C48.809 33.4998 34.8139 50.7317 27.1584 67.7275L72.6886 74.5768L118.219 67.7275C110.563 50.7317 97.0655 33.4998 72.6886 33.4998Z" fill="#F8FF7B" stroke="black" stroke-width="0.5"/>
<path d="M70.3979 67.3984C68.0016 65.0055 45.6358 63.4103 26.4652 67.3984C26.4652 67.3984 22.4715 75.8096 23.2701 75.8096C24.8678 75.8096 68.0016 75.012 69.5991 75.012C71.1967 75.012 71.1967 79.0001 72.7942 79.0001C74.3918 79.0001 74.3918 75.012 75.9894 75.012C77.5869 75.012 120.721 75.8096 122.318 75.8096C123.117 75.8096 119.123 67.3984 119.123 67.3984C99.9526 63.4103 77.5869 65.0055 75.1906 67.3984C73.593 68.9936 73.1936 70.5888 72.7942 71.7853C72.3948 70.5888 71.9955 68.9936 70.3979 67.3984Z" fill="white" stroke="black" stroke-linecap="round"/>
<path d="M72.9752 0L84.0434 32.3033C75.3715 31.1069 70.5789 31.1069 61.907 32.3033L72.9752 0Z" fill="#F8FF7B"/>
<path d="M72.9752 0L84.0434 32.3033C75.3715 31.1069 70.5789 31.1069 61.907 32.3033L72.9752 0Z" fill="#F8FF7B"/>
<path d="M72.9752 0L84.0434 32.3033C75.3715 31.1069 70.5789 31.1069 61.907 32.3033L72.9752 0Z" stroke="black" stroke-width="0.5"/>
<path d="M112.315 10.3117L105.725 43.8132C98.8141 38.4475 94.6635 36.0546 86.5544 32.7611L112.315 10.3117Z" fill="#F8FF7B"/>
<path d="M112.315 10.3117L105.725 43.8132C98.8141 38.4475 94.6635 36.0546 86.5544 32.7611L112.315 10.3117Z" fill="#F8FF7B"/>
<path d="M112.315 10.3117L105.725 43.8132C98.8141 38.4475 94.6635 36.0546 86.5544 32.7611L112.315 10.3117Z" stroke="black" stroke-width="0.5"/>
<path d="M140.623 37.2892L119.053 63.78C115.474 55.8026 112.934 51.7441 107.323 45.0347L140.623 37.2892Z" fill="#F8FF7B"/>
<path d="M140.623 37.2892L119.053 63.78C115.474 55.8026 112.934 51.7441 107.323 45.0347L140.623 37.2892Z" fill="#F8FF7B"/>
<path d="M140.623 37.2892L119.053 63.78C115.474 55.8026 112.934 51.7441 107.323 45.0347L140.623 37.2892Z" stroke="black" stroke-width="0.5"/>
<path d="M5.35303 36.4916L26.9225 62.9824C30.5018 55.005 33.0415 50.9465 38.653 44.2371L5.35303 36.4916Z" fill="#F8FF7B"/>
<path d="M5.35303 36.4916L26.9225 62.9824C30.5018 55.005 33.0415 50.9465 38.653 44.2371L5.35303 36.4916Z" fill="#F8FF7B"/>
<path d="M5.35303 36.4916L26.9225 62.9824C30.5018 55.005 33.0415 50.9465 38.653 44.2371L5.35303 36.4916Z" stroke="black" stroke-width="0.5"/>
<path d="M33.8352 10.3117L40.4251 43.8132C47.336 38.4475 51.4866 36.0546 59.5957 32.7611L33.8352 10.3117Z" fill="#F8FF7B"/>
<path d="M33.8352 10.3117L40.4251 43.8132C47.336 38.4475 51.4866 36.0546 59.5957 32.7611L33.8352 10.3117Z" fill="#F8FF7B"/>
<path d="M33.8352 10.3117L40.4251 43.8132C47.336 38.4475 51.4866 36.0546 59.5957 32.7611L33.8352 10.3117Z" stroke="black" stroke-width="0.5"/>
</svg>
